inDegrees=no
num_controls=7
num_derivatives=13
num_iterations=153
num_multipliers=7
num_parameters=0
num_slacks=7
num_states=26
objective=0.476848
objective_accelerations=0.044421
objective_balance=0.003614
objective_effort=0.040539
objective_height=0.382611
objective_ligament=0.005663
solver_duration=2113.346302
status=Solve_Succeeded
success=true
DataType=double
version=3
OpenSimVersion=4.5
endheader
time	/jointset/ground_pelvis/pelvis_tilt/value	/jointset/ground_pelvis/pelvis_tx/value	/jointset/ground_pelvis/pelvis_ty/value	/jointset/hip_l/hip_flexion_l/value	/jointset/hip_l/hip_adduction_l/value	/jointset/hip_l/hip_rotation_l/value	/jointset/back/lumbar_extension/value	/jointset/patellofemoral_l/patellar_flexion_l/value	/jointset/knee_l/knee_flexion_l/value	/jointset/knee_l/knee_adduction_l/value	/jointset/knee_l/knee_rotation_l/value	/jointset/ankle_l/ankle_angle_l/value	/jointset/subtalar_l/subtalar_angle_l/value	/jointset/ground_pelvis/pelvis_tilt/speed	/jointset/ground_pelvis/pelvis_tx/speed	/jointset/ground_pelvis/pelvis_ty/speed	/jointset/hip_l/hip_flexion_l/speed	/jointset/hip_l/hip_adduction_l/speed	/jointset/hip_l/hip_rotation_l/speed	/jointset/back/lumbar_extension/speed	/jointset/patellofemoral_l/patellar_flexion_l/speed	/jointset/knee_l/knee_flexion_l/speed	/jointset/knee_l/knee_adduction_l/speed	/jointset/knee_l/knee_rotation_l/speed	/jointset/ankle_l/ankle_angle_l/speed	/jointset/subtalar_l/subtalar_angle_l/speed	/forceset/tau_hip_flexion_l	/forceset/tau_hip_adduction_l	/forceset/tau_hip_rotation_l	/forceset/tau_knee_flexion_l	/forceset/tau_ankle_angle_l	/forceset/tau_subtalar_angle_l	/forceset/tau_lumbar_extension	lambda_cid13_p0	lambda_cid13_p1	lambda_cid13_p2	lambda_cid13_p3	lambda_cid13_p4	lambda_cid13_p5	lambda_cid14_p0	/jointset/ground_pelvis/pelvis_tilt/accel	/jointset/ground_pelvis/pelvis_tx/accel	/jointset/ground_pelvis/pelvis_ty/accel	/jointset/hip_l/hip_flexion_l/accel	/jointset/hip_l/hip_adduction_l/accel	/jointset/hip_l/hip_rotation_l/accel	/jointset/back/lumbar_extension/accel	/jointset/patellofemoral_l/patellar_flexion_l/accel	/jointset/knee_l/knee_flexion_l/accel	/jointset/knee_l/knee_adduction_l/accel	/jointset/knee_l/knee_rotation_l/accel	/jointset/ankle_l/ankle_angle_l/accel	/jointset/subtalar_l/subtalar_angle_l/accel	gamma_cid13_p0	gamma_cid13_p1	gamma_cid13_p2	gamma_cid13_p3	gamma_cid13_p4	gamma_cid13_p5	gamma_cid14_p0
0.5	-0.09434612074670798	-0.04193967398269401	0.8061466212775026	0.9322703572545893	-0.3301491174144484	-0.07717818352651559	-0.7908892933012871	0.9238339536034849	0.9238339536034851	-0.1043783063395441	-0.1744935967765597	0.150043364222987	0.0131273144705256	-0.1257543241616943	-0.1564566253768423	-0.4178264355821218	1.598727537787337	-0.02971400317479868	0.5675394814831179	-0.8379786177251763	1.788101420952494	1.788101420952485	0.1483526645482286	3.908449936270889e-05	0.4371516437071452	0.1165770149164329	-0.2706762122910929	0.01829339675004421	-0.004627247571247366	-0.2500083757426069	0.08734446815483013	0.04713794915139693	0.3275083957257315	-15.98050619254709	-19.36806899884863	4.568594830747937	-9.988501408503687	-701.7338329572804	-77.09519800953332	-9.653162036567405	0.2874185262565033	0.6847903184744168	-0.1907794991657711	-1.530492853779932	0.3397732927045439	-0.5127217451058441	1.90774119309549	-1.42529052318639	-1.425290523186391	-0.2066356795428697	0.002459544662698225	-0.2490057866368289	0.357375925294697	-2.569230804801397e-07	-1.647504201720867e-07	1.532857516202481e-06	1.4331300513723e-07	-2.844783479363629e-07	-9.760491555163399e-08	-2.195377906690167e-07
0.51	-0.0955890986541886	-0.04346997916969022	0.801959751864502	0.9481786806148922	-0.3304301477598481	-0.07152745313737377	-0.7991728217376048	0.9416409060878553	0.9416409060878543	-0.1029078277711763	-0.1744929610310219	0.1544013606573764	0.01430960328174462	-0.1228205217865279	-0.1496035158419536	-0.4194515500285025	1.582713556765065	-0.02650457666694447	0.5625495642776774	-0.8186403755553605	1.773034068339103	1.7730340683391	0.1457248947316118	8.795423724663543e-05	0.4343755759905064	0.1198474147097328	-0.2769157788367979	0.01859462659581637	-0.004763338643377935	-0.2536177105127166	0.08619124209132516	0.04721840324676323	0.3337799258732864	-16.61262344850125	-19.23726756154623	4.484845060096643	-9.741746142577243	-706.3158816845159	-76.95325058399895	-8.927155979655742	0.2994476901290962	0.685734528395612	-0.1340478397931401	-1.670418798805069	0.3094430105125792	-0.5008814770576124	1.959869826372293	-1.585665857304764	-1.585665857303811	-0.2935658782170867	0.006383335641729155	-0.3027152997998201	0.3067160695781687	-2.478446365944508e-07	-1.641387384189543e-07	1.493965405343666e-06	1.382543770235647e-07	-2.708542430282479e-07	-6.936872899698354e-08	-2.154802180577139e-07
0.52	-0.09680212121852109	-0.04493172060985764	0.7977594972225537	0.9639201505505014	-0.3306795007040318	-0.06592837287404522	-0.8072603669327346	0.9592895434007139	0.9592895434007118	-0.1014641705500738	-0.1744917800586471	0.1587294348074749	0.01552356490354276	-0.1197632555320659	-0.1427438760110842	-0.4205034813716395	1.565356852848624	-0.02337852293161923	0.557209456320458	-0.7987819694876382	1.756438386650141	1.756438386650144	0.1429883950951546	0.0001481298667463151	0.4311671868489707	0.1229115770322543	-0.2831553453825028	0.01889585644158855	-0.004899429715508581	-0.2572270452828261	0.0850380160278202	0.0472988573421295	0.3400514560208413	-17.24658201827811	-19.10647004419428	4.401470021875357	-9.541000955207156	-710.9599521778213	-76.86398804773644	-8.203357474489687	0.3121113021156243	0.6860963776705448	-0.07614287851699128	-1.79903743261365	0.3230987381987495	-0.5827598954616705	2.011773972676744	-1.730956338300527	-1.730956338300524	-0.2283816435109721	0.004720722985466948	-0.3354700716162502	0.3161284311390271	-2.438248606964399e-07	-2.199366717644876e-07	1.445745040603877e-06	1.263394516928213e-07	-2.627726418014714e-07	-5.779039388829704e-08	-2.173547589208925e-07
0.53	-0.09798400627668341	-0.0463248930483216	0.7935516060593957	0.9794814982631219	-0.330897995395703	-0.06038489539811796	-0.8151469054546584	0.9767647394594504	0.9767647394594509	-0.100047985769091	-0.1744902860841608	0.1630233359097789	0.01676716674070912	-0.1165986459581063	-0.1358951545406208	-0.4209775741208636	1.546703666678897	-0.02032924599663972	0.5514030435033633	-0.7784550743406238	1.738359259635637	1.738359259635645	0.1402658066915172	0.0001415647342735511	0.4275487990296777	0.1257818491673645	-0.2890599469692179	0.01908757461196965	-0.004996476056043826	-0.2610165269274342	0.0840111571838025	0.04721465387521723	0.3459992037787367	-17.8421157711183	-18.90196544333863	4.296149120801719	-9.275036806153654	-715.486466582094	-76.68197759481484	-7.489146056571432	0.3208800171538825	0.683602619118833	-0.01851760781442796	-1.929841909811037	0.2943345329811388	-0.5922325853917036	2.053746369186729	-1.882582034380689	-1.882582034379991	-0.2916332053388207	-0.004428706823094309	-0.3846614409148593	0.2683087080354553	-2.343823237957212e-07	-2.211687727232859e-07	1.401565833956592e-06	1.208075519362818e-07	-2.502683940127467e-07	-3.293870364729551e-08	-2.126932043807146e-07
0.54	-0.09913379639268258	-0.04764970975460402	0.7893418789418076	0.9948500375739133	-0.3310862988456578	-0.05490201217247328	-0.8228280552084174	0.9940519060177709	0.9940519060177737	-0.09865851402545431	-0.1744890744760911	0.1672791254731241	0.01803863771989427	-0.1133442670994363	-0.129072729574774	-0.42087067225766	1.526795172482817	-0.01734027458831672	0.5450906062639356	-0.7577042158546922	1.718832486566918	1.718832486566931	0.1376457876259307	9.165658342293836e-05	0.4235448790572231	0.1284854054360121	-0.294964548555933	0.01927929278235076	-0.005093522396579087	-0.2648060085720388	0.08298429833978484	0.04713045040830444	0.3519469515366246	-18.4390771391657	-18.70047329891665	4.195036270958323	-9.060139214515392	-720.0637656311952	-76.5558863931565	-6.807615430936942	0.3300651590577105	0.6808370767472085	0.04005604396855118	-2.050099037884391	0.3110376328674473	-0.6839647799282487	2.096566640460161	-2.020485549143489	-2.020485549143491	-0.2078677759009196	-0.003947880690102816	-0.4125765022485688	0.2827852578464907	-2.189401364239214e-07	-1.620301655095255e-07	1.361857695837184e-06	1.22337723027798e-07	-2.328710053469729e-07	6.598400782650475e-09	-2.008002251389505e-07
0.55	-0.1002506130539932	-0.04890649019271242	0.7851361269884114	1.010013352163093	-0.3312450316888917	-0.04948437560215713	-0.8302997120861335	1.011136732957366	1.011136732957369	-0.09729498483343942	-0.1744883688140789	0.1714930229720447	0.01933629166862619	-0.1100032343336765	-0.122293077711911	-0.4201818719800753	1.50566354967211	-0.01442610194696416	0.5383867737214063	-0.7365726111321108	1.697902321732592	1.697902321732598	0.1350395529625104	4.901573467695497e-05	0.4191737397224568	0.1310049065595494	-0.3006400600735262	0.01936618323067211	-0.00514203638305852	-0.2686004054827378	0.08182289174693787	0.04693564382040418	0.357633634175739	-19.07879616725284	-18.43996931960049	4.08052727729015	-8.717836140513086	-724.5003450291633	-76.35702382877137	-6.161829481070477	0.3384771593234015	0.6750959257777817	0.09792430958006201	-2.175349447110728	0.2784523281639278	-0.6712586393491218	2.129639671617413	-2.163830030860248	-2.163830030861257	-0.2900860906780175	-0.004224287921865518	-0.4585126541945538	0.2303243039365504	-2.021418853844525e-07	-1.021458753791194e-07	1.317180601042938e-06	1.231672270591782e-07	-2.141898634285715e-07	4.599356480171859e-08	-1.880551254082237e-07
0.5600000000000001	-0.1013335484228485	-0.05009576077524781	0.780940189495776	1.024959219415276	-0.3313752537560331	-0.04413531058685304	-0.8375584164599316	1.02800534863256	1.028005348632565	-0.09595813494388182	-0.1744880499807452	0.1756613830765969	0.02065789898145932	-0.1065680086083855	-0.1155707584601705	-0.4189077801054253	1.483305705083524	-0.01163811936982733	0.531376295261523	-0.7151137150711181	1.675590233686943	1.675590233686942	0.1323099271344726	1.42908477313951e-05	0.4144374001835348	0.1332760782562547	-0.3063155715911192	0.01945307367899347	-0.005190550369537977	-0.2723948023934368	0.08066148515409091	0.04674083723250392	0.3633203168148534	-19.72070934999068	-18.18226829523417	3.970106777593563	-8.422963012186562	-728.9952621260097	-76.21104653868879	-5.552332553319188	0.3489037509639287	0.6693705545226987	0.1571143633816303	-2.295343393460371	0.2857996200243043	-0.7452939633990445	2.162024908142437	-2.296870191407976	-2.296870191407987	-0.2325460088244301	-0.002364688329898158	-0.4856165430797118	0.2331193724800921	-1.837163579437806e-07	-4.136676574873844e-08	1.266540758238885e-06	1.231559306183954e-07	-1.93968217607017e-07	8.52184003277333e-08	-1.742874810907417e-07
0.5700000000000001	-0.1023817235417549	-0.0512181495132328	0.7767599088200275	1.039675594041291	-0.3314780780180465	-0.0388579834399552	-0.8446010134632723	1.044644124493586	1.044644124493589	-0.09464880457905608	-0.1744879570376387	0.1797806707032802	0.02200117504550723	-0.1030545455560388	-0.1089217191890029	-0.4170508882192548	1.459776810732636	-0.008943498988936698	0.5240215382333993	-0.69336608537081	1.651946741682722	1.651946741682729	0.129560345819469	-6.708260691530826e-07	0.4093658454318025	0.1353435402492709	-0.3116787125866946	0.01944992098419426	-0.005196776407957544	-0.2762277928381127	0.07945345218822576	0.04643528224020421	0.3686729731247189	-20.37359700652111	-17.87044201164937	3.84636641481737	-8.027478354259582	-733.293177540426	-76.00174582446519	-4.979304108521777	0.3544213970779335	0.6604857354958577	0.2145601190431519	-2.41054614738938	0.2585985813595694	-0.7408538147918747	2.187072034906879	-2.430784930316523	-2.430784930315326	-0.2955310696101637	-0.001558879668226277	-0.5260589114472309	0.1880760361451932	-1.649249237917869e-07	1.626992547919933e-08	1.209330084255948e-06	1.22064223859698e-07	-1.7383081054171e-07	1.205335027967999e-07	-1.599601632439698e-07
0.58	-0.1033943932671963	-0.0522744848340897	0.7726011137667027	1.054150902985499	-0.3315544950094034	-0.03365626131179315	-0.8514249461628236	1.061039926189492	1.061039926189493	-0.09336684340273478	-0.1744881131058227	0.1838476159884007	0.02336402901417185	-0.09946692991537667	-0.102360075034553	-0.4146106556207484	1.435092568722295	-0.006356665238521061	0.5162552915143628	-0.6713808543132267	1.626995400663008	1.626995400663023	0.1268360894335914	-3.551141039342506e-05	0.4039689318709801	0.137191659179599	-0.31704185358227	0.01944676828939505	-0.005203002446377154	-0.2800607832827743	0.07824541922236063	0.04612972724789512	0.3740256294345992	-21.02962982592776	-17.56080732683126	3.726108953936778	-7.67434406987626	-737.6594137206434	-75.84087075361424	-4.442912055818251	0.3637342686270106	0.6518915311791484	0.273782505848832	-2.526412925350939	0.2642422939293047	-0.8275919015815587	2.20954517959751	-2.558439994506596	-2.558439994506597	-0.2274810229992933	-0.00634047043464293	-0.5506883048977705	0.1892507599424409	-1.456569599692347e-07	6.981416483418733e-08	1.143562048737722e-06	1.195654711055773e-07	-1.538031097636092e-07	1.507568598893759e-07	-1.449039682427739e-07
